HIERARCHY
ROOT Hips 
{
	OFFSET 0.0   0.0  0.0 
	CHANNELS 6 Xposition Yposition Zposition Zrotation Xrotation Yrotation  
	JOINT Spine 
	{
		OFFSET 0.00000 13.20850 -1.60436
		CHANNELS 3 Zrotation Xrotation Yrotation   
		JOINT Spine1 
		{
			OFFSET 0.00000 8.61716 0.00000
			CHANNELS 3 Zrotation Xrotation Yrotation
			JOINT Spine2 
			{
				OFFSET 0.00000 8.61717 0.00000
				CHANNELS 3 Zrotation Xrotation Yrotation
				JOINT Spine3 
				{
					OFFSET 0.00000 8.61717 0.00000
					CHANNELS 3 Zrotation Xrotation Yrotation
					JOINT Neck 
					{
						OFFSET 0.00000 11.07920 1.10792
						CHANNELS 3 Zrotation Xrotation Yrotation
						JOINT Neck1 
						{
							OFFSET 0.00000 7.08032 0.00000
							CHANNELS 3 Zrotation Xrotation Yrotation
							JOINT Head 
							{
								OFFSET 0.00000 7.08031 0.00000
								CHANNELS 3 Zrotation Xrotation Yrotation
								End site
								{
									OFFSET 0.00000 0.00000 0.00000
								}
							}
						}
					}
					JOINT RightShoulder 
					{
						OFFSET -0.01000 7.91373 5.19711
						CHANNELS 3 Zrotation Xrotation Yrotation
						JOINT RightArm 
						{
							OFFSET -18.41580 0.00000 0.00000
							CHANNELS 3 Zrotation Xrotation Yrotation
							JOINT RightForeArm  
							{
								OFFSET -29.11090 0.00000 0.00000
								CHANNELS 3 Zrotation Xrotation Yrotation
								JOINT RightHand 
								{
									OFFSET -24.65040 0.00000 0.00000
									CHANNELS 3 Zrotation Xrotation Yrotation
									JOINT RightHandThumb1  
									{
										OFFSET -5.35114 -0.85590 3.97906
										CHANNELS 3 Zrotation Xrotation Yrotation
										JOINT RightHandThumb2  
										{
											OFFSET -4.52789 0.00000 0.00000
											CHANNELS 3 Zrotation Xrotation Yrotation
											JOINT RightHandThumb3  
											{
												OFFSET -2.46976 0.00000 0.00000
												CHANNELS 3 Zrotation Xrotation Yrotation
												End site
												{
													OFFSET 0.00000 0.00000 0.00000
												}
											}
										}
									}
									JOINT RightHandIndex1  
									{
										OFFSET -14.26970 0.00000 2.88139
										CHANNELS 3 Zrotation Xrotation Yrotation
										JOINT RightHandIndex2  
										{
											OFFSET -5.48836 0.00000 0.00000
											CHANNELS 3 Zrotation Xrotation Yrotation
											JOINT RightHandIndex3  
											{
												OFFSET -3.01859 0.00000 0.00000
												CHANNELS 3 Zrotation Xrotation Yrotation
												End site
												{
													OFFSET 0.00000 0.00000 0.00000
												}
											}
										}
									}
									JOINT RightHandMiddle1  
									{
										OFFSET -14.26970 0.00000 -0.09147
										CHANNELS 3 Zrotation Xrotation Yrotation
										JOINT RightHandMiddle2 
										{
											OFFSET -6.17441 0.00000 0.00000
											CHANNELS 3 Zrotation Xrotation Yrotation
											JOINT RightHandMiddle3 
											{
												OFFSET -3.56743 0.00000 0.00000
												CHANNELS 3 Zrotation Xrotation Yrotation
												End site
												{
													OFFSET 0.00000 0.00000 0.00000
												}
											}
										}
									}
									JOINT RightHandRing1  
									{
										OFFSET -12.69180 0.00000 -3.06433
										CHANNELS 3 Zrotation Xrotation Yrotation
										JOINT RightHandRing2  
										{
											OFFSET -5.62556 0.00000 0.00000
											CHANNELS 3 Zrotation Xrotation Yrotation
											JOINT RightHandRing3   
											{
												OFFSET -3.56744 0.00000 0.00000
												CHANNELS 3 Zrotation Xrotation Yrotation
												End site
												{
													OFFSET 0.00000 0.00000 0.00000
												}
											}
										}
									}
									JOINT RightHandPinky1   
									{
										OFFSET -11.11390 0.00000 -6.03719
										CHANNELS 3 Zrotation Xrotation Yrotation
										JOINT RightHandPinky2   
										{
											OFFSET -4.52789 0.00000 0.00000
											CHANNELS 3 Zrotation Xrotation Yrotation
											JOINT RightHandPinky3  
											{
												OFFSET -2.46976 0.00000 0.00000
												CHANNELS 3 Zrotation Xrotation Yrotation
												End site
												{
													OFFSET 0.00000 0.00000 0.00000
												}
											}
										}
									}
								}
							}
						}
					}
					JOINT LeftShoulder  
					{ 
						OFFSET 0.01000 7.91373 5.19711
						CHANNELS 3 Zrotation Xrotation Yrotation
						JOINT LeftArm  
						{
							OFFSET 18.41580 0.00000 0.00000
							CHANNELS 3 Zrotation Xrotation Yrotation
							JOINT LeftForeArm  
							{
								OFFSET 29.11090 0.00000 0.00000
								CHANNELS 3 Zrotation Xrotation Yrotation
								JOINT LeftHand  
								{
									OFFSET 24.65040 0.00000 0.00000
									CHANNELS 3 Zrotation Xrotation Yrotation
									JOINT LeftHandThumb1  
									{
										OFFSET 5.35114 -0.85590 3.97906
										CHANNELS 3 Zrotation Xrotation Yrotation
										JOINT LeftHandThumb2 
										{
											OFFSET 4.52789 0.00000 0.00000
											CHANNELS 3 Zrotation Xrotation Yrotation
											JOINT LeftHandThumb3  
											{
												OFFSET 2.46977 0.00000 0.00000
												CHANNELS 3 Zrotation Xrotation Yrotation
												End site
												{
													OFFSET 0.00000 0.00000 0.00000
												}
											}
										}
									}
									JOINT LeftHandIndex1  
									{
										OFFSET 14.26970 0.00000 2.88139
										CHANNELS 3 Zrotation Xrotation Yrotation
										JOINT LeftHandIndex2  
										{
											OFFSET 5.48836 0.00000 0.00000
											CHANNELS 3 Zrotation Xrotation Yrotation
											JOINT LeftHandIndex3 
											{
												OFFSET 3.01859 0.00000 0.00000
												CHANNELS 3 Zrotation Xrotation Yrotation
												End site
												{
													OFFSET 0.00000 0.00000 0.00000
												}
											}
										}
									}
									JOINT LeftHandMiddle1 
									{
										OFFSET 14.26970 0.00000 -0.09147
										CHANNELS 3 Zrotation Xrotation Yrotation
										JOINT LeftHandMiddle2  
										{
											OFFSET 6.17440 0.00000 0.00000
											CHANNELS 3 Zrotation Xrotation Yrotation
											JOINT LeftHandMiddle3  
											{
												OFFSET 3.56744 0.00000 0.00000
												CHANNELS 3 Zrotation Xrotation Yrotation
												End site
												{
													OFFSET 0.00000 0.00000 0.00000
												}
											}
										}
									}
									JOINT LeftHandRing1  
									{
										OFFSET 12.69180 0.00000 -3.06433
										CHANNELS 3 Zrotation Xrotation Yrotation
										JOINT LeftHandRing2 
										{
											OFFSET 5.62556 0.00000 0.00000
											CHANNELS 3 Zrotation Xrotation Yrotation
											JOINT LeftHandRing3  
											{
												OFFSET 3.56744 0.00000 0.00000
												CHANNELS 3 Zrotation Xrotation Yrotation
												End site
												{
													OFFSET 0.00000 0.00000 0.00000
												}
											}
										}
									}
									JOINT LeftHandPinky1  
									{
										OFFSET 11.11390 0.00000 -6.03719
										CHANNELS 3 Zrotation Xrotation Yrotation
										JOINT LeftHandPinky2   
										{
											OFFSET 4.52789 0.00000 0.00000
											CHANNELS 3 Zrotation Xrotation Yrotation
											JOINT LeftHandPinky3   
											{
												OFFSET 2.46976 0.00000 0.00000
												CHANNELS 3 Zrotation Xrotation Yrotation
												End site
												{
													OFFSET 0.00000 0.00000 0.00000
												}
											}
										}
									}
								}
							}
						}
					}
					JOINT pCube4
					{
						OFFSET 0.00000 10.91090 1.10792
						CHANNELS 3 Zrotation Xrotation Yrotation
						End site
						{
							OFFSET 0.00000 0.00000 0.00000
						}
					}
				}
			}
		}
	}
	JOINT RightUpLeg  
	{
		OFFSET -9.98441 0.00000 0.00000
		CHANNELS 3 Zrotation Xrotation Yrotation
		JOINT RightLeg  
		{
			OFFSET 0.00000 -42.11790 0.00000
			CHANNELS 3 Zrotation Xrotation Yrotation
			JOINT RightFoot  
			{
				OFFSET 0.00000 -45.00020 -0.00001
				CHANNELS 3 Zrotation Xrotation Yrotation
				JOINT RightForeFoot 
				{
					OFFSET 0.00000 -3.74820 0.00000
					CHANNELS 3 Zrotation Xrotation Yrotation
					JOINT RightToeBase 
					{
						OFFSET 0.00000 0.06325 14.43120
						CHANNELS 3 Zrotation Xrotation Yrotation
						End site
						{
							OFFSET 0.00000 0.00000 0.00000
						}
					}
				}
			}
		}
	}
	JOINT LeftUpLeg  
	{
		OFFSET 9.98441 0.00000 0.00000
		CHANNELS 3 Zrotation Xrotation Yrotation
		JOINT LeftLeg  
		{
			OFFSET 0.00000 -42.11800 0.00000
			CHANNELS 3 Zrotation Xrotation Yrotation
			JOINT LeftFoot  
			{
				OFFSET 0.00000 -45.00070 0.00000
				CHANNELS 3 Zrotation Xrotation Yrotation
				JOINT LeftForeFoot  
				{
					OFFSET 0.00000 -3.74824 0.00000
					CHANNELS 3 Zrotation Xrotation Yrotation
					JOINT LeftToeBase  
					{
						OFFSET 0.00000 0.06325 14.43110
						CHANNELS 3 Zrotation Xrotation Yrotation
						End site
						{
							OFFSET 0.00000 0.00000 0.00000
						}
					}
				}
			}
		}
	}
}
MOTION
Frames: 5
Frame Time: 0.050000
0.0 0.0 0.0 -0.0 0.0 -0.0 -1.3046685544406227 3.501782774141795 -1.0127527902755538 -0.9790104716669572 3.8221154884363653 0.47468768118140486 -0.986591704537554 -0.7648589963122197 -0.3877472561515407 0.05505954960726047 0.3247366114666287 -0.6506483969480675 -0.18031931302667484 11.391804605463431 -0.17295518281215047 0.0032291020918855 -0.7115489565276106 -2.3185793915080537 0.1894514107675561 -15.851248226897653 -0.12551090946162782 -2.7329475422104474 2.098681703399768 -13.820460290531535 67.54946794321641 15.890952220211203 -4.415208981964816 -4.512111900848484 2.0090180953307546 60.83744354276605 13.95390115381228 -0.7961361820241172 -2.507473353218092 -2.36978 -0.201104 4.8479 1.23799e-06 -2.59538e-07 -3.99014e-06 1.1532e-06 8.61999e-07 -6.12582e-07 4.15954 -4.57969e-06 2.50103e-06 5.00605e-07 1.17626e-06 -1.09937e-06 5.00605e-07 1.17626e-06 -1.09937e-06 12.1951 -1.13344e-06 5.25921e-06 1.11309e-05 -1.18451e-06 -1.72079e-06 -4.5942e-07 3.14939e-07 3.09513e-07 18.091 -3.393e-06 6.28454e-07 7.95139e-16 1.27222e-14 1.19271e-15 -1.59028e-15 6.36111e-15 -0.0 37.0196 2.14169e-06 2.11229e-06 1.43697e-05 3.79404e-06 4.26277e-06 4.00592e-07 -1.38718e-06 -8.17273e-07 3.6348002320881334 2.0861700493893016 12.553887850834087 -64.13722271530499 23.988872646003053 10.013068597704208 2.4289589969813408 2.6731494100791284 -64.67659998013765 -10.669015951819613 -0.22706798358092123 0.32830989817510353 2.59029 -0.543726 -11.8472 -3.83086e-06 2.9981e-06 2.11798e-05 -6.2661e-07 -1.39035e-06 1.86693e-06 -2.91242 1.44339e-06 -3.63115e-06 -5.59715e-07 1.09034e-06 1.13377e-06 -5.59715e-07 1.09034e-06 1.13377e-06 -12.9985 4.90405e-06 -3.76457e-06 -1.33771e-06 -1.464e-06 3.19814e-06 -5.26079e-07 9.86454e-07 1.22523e-06 -18.6344 -1.21198e-06 -2.47337e-06 -1.25358e-05 -1.68607e-06 5.04235e-06 1.87336e-06 6.94431e-07 -4.39454e-06 -34.5048 5.85289e-08 -3.49365e-06 -7.95138e-15 1.27222e-14 4.77083e-15 4.77083e-15 0.0 1.59028e-15 -4.96962e-16 0.0 -5.96354e-16 -2.14252 4.04337 -7.87884 0.000736976 11.8398 0.022817 -8.95265 -13.7596 -17.195 0.0 0.0 -0.0 -3.49049e-07 11.7695 -1.17258e-06 -5.38847 -1.06001 14.489 -6.42443e-05 20.6219 -0.00813738 2.554 -6.64826 -6.50648 3.97569e-16 0.0 4.77083e-15 2.26877e-07 -4.83151 6.05402e-06
0.0 0.0 0.0 -0.0 0.0 -0.0 0.6742284624931107 2.981281886900189 -1.7088815549536402 -0.975796602119833 3.8695913589941306 0.47262772442481504 -0.8325011053916765 -0.779883410525397 -0.4056255687848732 -0.01814839447764757 0.10541039934512704 -0.46024860343693097 -0.6071757116449794 12.15964081281299 0.30741584313853676 0.11076520694385587 -0.7468959238558825 0.07791425366568687 0.20943505619221847 -16.307648810702492 0.03209568562241689 -5.216330951131158 3.5460907555196983 -15.187541548871428 73.209095533818 16.461217324061877 -3.365350120463842 -13.735667175833958 -14.101789664254365 50.473862196121054 15.589278202705492 -0.6674552135800894 -1.5336908332050265 -2.36978 -0.201104 4.8479 1.23799e-06 -2.59538e-07 -3.99014e-06 1.1532e-06 8.61999e-07 -6.12582e-07 4.15954 -4.57969e-06 2.50103e-06 5.00605e-07 1.17626e-06 -1.09937e-06 5.00605e-07 1.17626e-06 -1.09937e-06 12.1951 -1.13344e-06 5.25921e-06 1.11309e-05 -1.18451e-06 -1.72079e-06 -4.5942e-07 3.14939e-07 3.09513e-07 18.091 -3.393e-06 6.28454e-07 7.95139e-16 1.27222e-14 1.19271e-15 -1.59028e-15 6.36111e-15 -0.0 37.0196 2.14169e-06 2.11229e-06 1.43697e-05 3.79404e-06 4.26277e-06 4.00592e-07 -1.38718e-06 -8.17273e-07 6.156692707409887 3.335045634816548 13.334221072344981 -64.74557848237437 29.029424472628577 4.9053189334419605 10.304867020571741 -12.757908198321031 -55.0575589396589 -14.226820147887569 -0.5037385097081417 1.5540479637474882 2.59029 -0.543726 -11.8472 -3.83086e-06 2.9981e-06 2.11798e-05 -6.2661e-07 -1.39035e-06 1.86693e-06 -2.91242 1.44339e-06 -3.63115e-06 -5.59715e-07 1.09034e-06 1.13377e-06 -5.59715e-07 1.09034e-06 1.13377e-06 -12.9985 4.90405e-06 -3.76457e-06 -1.33771e-06 -1.464e-06 3.19814e-06 -5.26079e-07 9.86454e-07 1.22523e-06 -18.6344 -1.21198e-06 -2.47337e-06 -1.25358e-05 -1.68607e-06 5.04235e-06 1.87336e-06 6.94431e-07 -4.39454e-06 -34.5048 5.85289e-08 -3.49365e-06 -7.95138e-15 1.27222e-14 4.77083e-15 4.77083e-15 0.0 1.59028e-15 -4.96962e-16 0.0 -5.96354e-16 -2.14252 4.04337 -7.87884 0.000736976 11.8398 0.022817 -8.95265 -13.7596 -17.195 0.0 0.0 -0.0 -3.49049e-07 11.7695 -1.17258e-06 -5.38847 -1.06001 14.489 -6.42443e-05 20.6219 -0.00813738 2.554 -6.64826 -6.50648 3.97569e-16 0.0 4.77083e-15 2.26877e-07 -4.83151 6.05402e-06
0.0 0.0 0.0 -0.0 0.0 -0.0 1.8148734358970897 2.8293622056898977 -2.1097103767635863 -0.9712379384279582 3.8314744113316994 0.47150658504545345 -0.716489151987892 -0.7523149091099665 -0.47123046870136975 -0.07950725138136412 -0.05002814182730503 -0.3670421580239517 -0.9298824538283544 12.763201099503465 0.5431174178767615 0.14800386839884544 -0.6662900089220756 1.3461876131832107 0.19626590030172522 -16.46585132044943 0.11324060292043049 -6.874953263734492 4.493296211789476 -15.551700671590524 77.72916530949539 20.22576387732924 0.09366086632662303 -17.65412653704081 -15.666949079643947 49.209950818690075 14.517711154605156 -0.5406368400726592 -1.2343533606791248 -2.36978 -0.201104 4.8479 1.23799e-06 -2.59538e-07 -3.99014e-06 1.1532e-06 8.61999e-07 -6.12582e-07 4.15954 -4.57969e-06 2.50103e-06 5.00605e-07 1.17626e-06 -1.09937e-06 5.00605e-07 1.17626e-06 -1.09937e-06 12.1951 -1.13344e-06 5.25921e-06 1.11309e-05 -1.18451e-06 -1.72079e-06 -4.5942e-07 3.14939e-07 3.09513e-07 18.091 -3.393e-06 6.28454e-07 7.95139e-16 1.27222e-14 1.19271e-15 -1.59028e-15 6.36111e-15 -0.0 37.0196 2.14169e-06 2.11229e-06 1.43697e-05 3.79404e-06 4.26277e-06 4.00592e-07 -1.38718e-06 -8.17273e-07 8.255693636423581 4.33238042916084 13.439475157646857 -62.056389573455384 36.141135472473024 -2.7183791660265877 17.27583159172674 -21.089883677564053 -56.28197435588285 -15.340940912342418 -0.7420042976097366 2.3432254055849153 2.59029 -0.543726 -11.8472 -3.83086e-06 2.9981e-06 2.11798e-05 -6.2661e-07 -1.39035e-06 1.86693e-06 -2.91242 1.44339e-06 -3.63115e-06 -5.59715e-07 1.09034e-06 1.13377e-06 -5.59715e-07 1.09034e-06 1.13377e-06 -12.9985 4.90405e-06 -3.76457e-06 -1.33771e-06 -1.464e-06 3.19814e-06 -5.26079e-07 9.86454e-07 1.22523e-06 -18.6344 -1.21198e-06 -2.47337e-06 -1.25358e-05 -1.68607e-06 5.04235e-06 1.87336e-06 6.94431e-07 -4.39454e-06 -34.5048 5.85289e-08 -3.49365e-06 -7.95138e-15 1.27222e-14 4.77083e-15 4.77083e-15 0.0 1.59028e-15 -4.96962e-16 0.0 -5.96354e-16 -2.14252 4.04337 -7.87884 0.000736976 11.8398 0.022817 -8.95265 -13.7596 -17.195 0.0 0.0 -0.0 -3.49049e-07 11.7695 -1.17258e-06 -5.38847 -1.06001 14.489 -6.42443e-05 20.6219 -0.00813738 2.554 -6.64826 -6.50648 3.97569e-16 0.0 4.77083e-15 2.26877e-07 -4.83151 6.05402e-06
0.0 0.0 0.0 -0.0 0.0 -0.0 1.6044160300104553 2.6029895922773814 -2.071568079504521 -0.9810425539766189 3.9244218748138247 0.46292622208378154 -0.7352637792281429 -0.8936724156538983 -0.6083113403351056 -0.035552183417512206 -0.06213818765827941 -0.3996354518995511 -0.9886637176520241 13.530899484292428 0.44977110497202805 0.13814605951995892 -0.531210278909923 1.2286405022648996 0.20412900877212228 -16.410094691355184 0.10340859042982625 -7.6700471447849425 4.7635083038758355 -15.266379479766874 77.34279824696395 23.002307294561017 3.3280081006960676 -15.558532422171927 -11.346563878473889 48.5831850929932 12.181090807252856 -0.027021103653971073 -0.05764655277853384 -2.36978 -0.201104 4.8479 1.23799e-06 -2.59538e-07 -3.99014e-06 1.1532e-06 8.61999e-07 -6.12582e-07 4.15954 -4.57969e-06 2.50103e-06 5.00605e-07 1.17626e-06 -1.09937e-06 5.00605e-07 1.17626e-06 -1.09937e-06 12.1951 -1.13344e-06 5.25921e-06 1.11309e-05 -1.18451e-06 -1.72079e-06 -4.5942e-07 3.14939e-07 3.09513e-07 18.091 -3.393e-06 6.28454e-07 7.95139e-16 1.27222e-14 1.19271e-15 -1.59028e-15 6.36111e-15 -0.0 37.0196 2.14169e-06 2.11229e-06 1.43697e-05 3.79404e-06 4.26277e-06 4.00592e-07 -1.38718e-06 -8.17273e-07 9.329607832650527 4.762576393130633 13.310653587382596 -57.57563500137237 40.27519949728863 -9.227096124842408 19.56201884166386 -24.990255469230974 -59.40721689876246 -12.961594917407597 -0.38138609789409783 1.1319212441499953 2.59029 -0.543726 -11.8472 -3.83086e-06 2.9981e-06 2.11798e-05 -6.2661e-07 -1.39035e-06 1.86693e-06 -2.91242 1.44339e-06 -3.63115e-06 -5.59715e-07 1.09034e-06 1.13377e-06 -5.59715e-07 1.09034e-06 1.13377e-06 -12.9985 4.90405e-06 -3.76457e-06 -1.33771e-06 -1.464e-06 3.19814e-06 -5.26079e-07 9.86454e-07 1.22523e-06 -18.6344 -1.21198e-06 -2.47337e-06 -1.25358e-05 -1.68607e-06 5.04235e-06 1.87336e-06 6.94431e-07 -4.39454e-06 -34.5048 5.85289e-08 -3.49365e-06 -7.95138e-15 1.27222e-14 4.77083e-15 4.77083e-15 0.0 1.59028e-15 -4.96962e-16 0.0 -5.96354e-16 -2.14252 4.04337 -7.87884 0.000736976 11.8398 0.022817 -8.95265 -13.7596 -17.195 0.0 0.0 -0.0 -3.49049e-07 11.7695 -1.17258e-06 -5.38847 -1.06001 14.489 -6.42443e-05 20.6219 -0.00813738 2.554 -6.64826 -6.50648 3.97569e-16 0.0 4.77083e-15 2.26877e-07 -4.83151 6.05402e-06
0.0 0.0 0.0 -0.0 0.0 -0.0 1.7248392274378754 2.5295100989342725 -2.098347500448141 -0.9864488761014506 3.9972797297941125 0.4481654945457193 -0.7392464331066444 -0.9897014447349657 -0.7781815312397126 0.044748288716211324 -0.03581671648181503 -0.443374085770673 -0.9799917441603297 14.12840901530035 0.2803566013381279 0.12973545180087975 -0.43345507853438264 0.9956431278001172 0.2249069064531351 -16.428903905442887 0.091081328687247 -8.478670948529285 5.038585611785105 -14.974816879768007 75.17794203605365 25.253235192957476 5.647604664443269 -11.398173848250918 -8.240482908871591 49.02311666803187 9.713904198336978 0.3400675338854877 0.7765751856609113 -2.36978 -0.201104 4.8479 1.23799e-06 -2.59538e-07 -3.99014e-06 1.1532e-06 8.61999e-07 -6.12582e-07 4.15954 -4.57969e-06 2.50103e-06 5.00605e-07 1.17626e-06 -1.09937e-06 5.00605e-07 1.17626e-06 -1.09937e-06 12.1951 -1.13344e-06 5.25921e-06 1.11309e-05 -1.18451e-06 -1.72079e-06 -4.5942e-07 3.14939e-07 3.09513e-07 18.091 -3.393e-06 6.28454e-07 7.95139e-16 1.27222e-14 1.19271e-15 -1.59028e-15 6.36111e-15 -0.0 37.0196 2.14169e-06 2.11229e-06 1.43697e-05 3.79404e-06 4.26277e-06 4.00592e-07 -1.38718e-06 -8.17273e-07 10.321462210091054 5.135981964268949 13.044714485749699 -52.89559215258051 43.821992542335146 -14.692926767145423 17.457703525243407 -27.273048163286077 -64.5202535622773 -9.274391624383512 -0.034601627472015006 -0.513002105555739 2.59029 -0.543726 -11.8472 -3.83086e-06 2.9981e-06 2.11798e-05 -6.2661e-07 -1.39035e-06 1.86693e-06 -2.91242 1.44339e-06 -3.63115e-06 -5.59715e-07 1.09034e-06 1.13377e-06 -5.59715e-07 1.09034e-06 1.13377e-06 -12.9985 4.90405e-06 -3.76457e-06 -1.33771e-06 -1.464e-06 3.19814e-06 -5.26079e-07 9.86454e-07 1.22523e-06 -18.6344 -1.21198e-06 -2.47337e-06 -1.25358e-05 -1.68607e-06 5.04235e-06 1.87336e-06 6.94431e-07 -4.39454e-06 -34.5048 5.85289e-08 -3.49365e-06 -7.95138e-15 1.27222e-14 4.77083e-15 4.77083e-15 0.0 1.59028e-15 -4.96962e-16 0.0 -5.96354e-16 -2.14252 4.04337 -7.87884 0.000736976 11.8398 0.022817 -8.95265 -13.7596 -17.195 0.0 0.0 -0.0 -3.49049e-07 11.7695 -1.17258e-06 -5.38847 -1.06001 14.489 -6.42443e-05 20.6219 -0.00813738 2.554 -6.64826 -6.50648 3.97569e-16 0.0 4.77083e-15 2.26877e-07 -4.83151 6.05402e-06
